<?xml version="1.0" encoding="UTF-8" standalone="no"?>
<!-- Generator: Adobe Illustrator 20.1.0, SVG Export Plug-In . SVG Version: 6.00 Build 0)  -->

<svg
   xmlns:dc="http://purl.org/dc/elements/1.1/"
   xmlns:cc="http://creativecommons.org/ns#"
   xmlns:rdf="http://www.w3.org/1999/02/22-rdf-syntax-ns#"
   xmlns:svg="http://www.w3.org/2000/svg"
   xmlns="http://www.w3.org/2000/svg"
   xmlns:sodipodi="http://sodipodi.sourceforge.net/DTD/sodipodi-0.dtd"
   xmlns:inkscape="http://www.inkscape.org/namespaces/inkscape"
   version="1.1"
   id="Layer_1"
   x="0px"
   y="0px"
   viewBox="0 0 21 27"
   style="enable-background:new 0 0 21 27;"
   xml:space="preserve"
   sodipodi:docname="icon_recipes.svg"
   inkscape:version="0.92.2 5c3e80d, 2017-08-06"><metadata
     id="metadata1428"><rdf:RDF><cc:Work
         rdf:about=""><dc:format>image/svg+xml</dc:format><dc:type
           rdf:resource="http://purl.org/dc/dcmitype/StillImage" /></cc:Work></rdf:RDF></metadata><defs
     id="defs1426" /><sodipodi:namedview
     pagecolor="#ffffff"
     bordercolor="#666666"
     borderopacity="1"
     objecttolerance="10"
     gridtolerance="10"
     guidetolerance="10"
     inkscape:pageopacity="0"
     inkscape:pageshadow="2"
     inkscape:window-width="801"
     inkscape:window-height="708"
     id="namedview1424"
     showgrid="false"
     inkscape:zoom="8.7407407"
     inkscape:cx="10.5"
     inkscape:cy="13.5"
     inkscape:window-x="0"
     inkscape:window-y="0"
     inkscape:window-maximized="0"
     inkscape:current-layer="Layer_1" /><style
     type="text/css"
     id="style1413">
	.st0{fill:#231F20;}
	.st1{fill:#F9A58D;}
</style><path
     class="st0"
     d="M20,21h0.5c0.3,0,0.5-0.2,0.5-0.5v-20C21,0.2,20.8,0,20.5,0h-18C1.6,0,0,0.5,0,2.5v20c0,2,1.6,2.5,2.5,2.5H12  v1.5c0,0.2,0.1,0.3,0.2,0.4c0.1,0.1,0.3,0.1,0.5,0l1.8-0.9l1.8,0.9c0.1,0,0.1,0.1,0.2,0.1c0.1,0,0.2,0,0.3-0.1  c0.1-0.1,0.2-0.3,0.2-0.4V25h3.5c0.3,0,0.5-0.2,0.5-0.5S20.8,24,20.5,24H20V21z M1,2.5C1,1.1,2.3,1,2.5,1H20v19H2.5  c-0.4,0-1,0.1-1.5,0.5V2.5z M2.5,24C2.3,24,1,23.9,1,22.5S2.3,21,2.5,21H19v1h-2.5h-4h-10C2.2,22,2,22.2,2,22.5S2.2,23,2.5,23H12v1  H2.5z M14.7,25.1c-0.1,0-0.1-0.1-0.2-0.1s-0.2,0-0.2,0.1L13,25.7V23h3v1.5c0,0,0,0,0,0s0,0,0,0v1.2L14.7,25.1z M17,23h2v1h-2V23z"
     id="path1415" /><path
     class="st1"
     d="M12,3c-0.8,0-1.6,0.2-2.3,0.6C9,3.2,8.3,3,7.5,3C5,3,3,5,3,7.5c0,1.9,1.2,3.6,3,4.2v2.8v3C6,17.8,6.2,18,6.5,18  h8c0.3,0,0.5-0.2,0.5-0.5v-3V12c1.3-0.9,2-2.4,2-4C17,5.2,14.8,3,12,3z M14,17H7v-2h7V17z M14.2,11.3c-0.1,0.1-0.2,0.2-0.2,0.4V14H7  v-2.6c0-0.2-0.2-0.4-0.4-0.5C5.1,10.5,4,9.1,4,7.5C4,5.6,5.6,4,7.5,4c0.7,0,1.3,0.2,1.9,0.6c0.2,0.1,0.4,0.1,0.5,0  C10.6,4.2,11.3,4,12,4c2.2,0,4,1.8,4,4C16,9.3,15.3,10.6,14.2,11.3z"
     id="path1417"
     style="fill:#d6ccff;fill-opacity:1" /><g
     id="g1421"><path
       class="st1"
       d="M14.5,8C14.2,8,14,7.8,14,7.5C14,6.7,13.3,6,12.5,6C12.2,6,12,5.8,12,5.5S12.2,5,12.5,5C13.9,5,15,6.1,15,7.5   C15,7.8,14.8,8,14.5,8z"
       id="path1419"
       style="fill:#d6ccff;fill-opacity:1" /></g><path
     style="fill:#ffffff;fill-opacity:1;stroke-width:0.43240359;stroke-miterlimit:4;stroke-dasharray:none"
     d="M 1.7092772,23.731926 C 1.1231211,23.413881 0.87220283,22.495752 1.1963618,21.855129 c 0.078644,-0.155421 0.317172,-0.399965 0.5300628,-0.543432 l 0.3870741,-0.26085 h 8.3919793 8.39198 v 0.457628 0.457627 h -8.337687 c -9.0088373,0 -8.6628857,-0.02386 -8.5746974,0.591474 0.075276,0.525242 0.303661,0.54911 5.2714942,0.550907 l 4.6620762,0.0017 v 0.400424 0.400424 l -4.9480932,-0.0046 c -4.1534953,-0.0038 -4.9983858,-0.03187 -5.2612736,-0.17451 z"
     id="path1989"
     inkscape:connector-curvature="0" /><path
     style="fill:#ffffff;fill-opacity:1;stroke-width:0.43240359;stroke-miterlimit:4;stroke-dasharray:none"
     d="m 13.062712,24.367576 v -1.257407 h 1.430085 1.430084 v 1.260122 1.260121 L 15.213484,25.27231 14.504088,24.914208 13.7834,25.269595 13.062712,25.624982 Z"
     id="path1991"
     inkscape:connector-curvature="0" /><path
     style="fill:#ffffff;fill-opacity:1;stroke-width:0.43240359;stroke-miterlimit:4;stroke-dasharray:none"
     d="m 17.066949,23.510593 v -0.400424 h 0.915254 0.915255 v 0.400424 0.400424 h -0.915255 -0.915254 z"
     id="path1993"
     inkscape:connector-curvature="0" /><path
     style="fill:#ffffff;fill-opacity:1;stroke-width:0.43240359;stroke-miterlimit:4;stroke-dasharray:none"
     d="M 1.0516866,11.222886 C 1.0529829,4.2232037 1.0860667,2.0529092 1.194695,1.8415372 1.2724221,1.6902936 1.4813494,1.4586199 1.6589779,1.3267066 1.9795904,1.0886084 2.0471836,1.0866416 10.954529,1.0562211 l 8.97259,-0.030643 v 9.4406009 9.440601 l -8.837924,0.0037 c -8.2325295,0.0035 -8.8790671,0.01795 -9.4385594,0.211233 L 1.05,20.329246 Z m 13.7016704,6.675288 c 0.251022,-0.175822 0.25427,-0.214 0.25427,-2.988599 v -2.810501 l 0.675351,-0.721953 C 16.721993,10.266411 17.164141,8.816629 16.942079,7.2485892 16.502958,4.1478295 13.237657,2.2134431 10.298743,3.3130317 L 9.6664013,3.549621 9.1050227,3.2941103 C 8.3109438,2.9326865 6.7615205,2.9385939 5.8225269,3.3066251 4.8986737,3.6687221 3.9038608,4.6146309 3.4259661,5.5853727 3.0789595,6.2902434 3.0521627,6.4270774 3.0527316,7.4912384 3.0532693,8.4940316 3.0916941,8.7196968 3.3593482,9.2918973 3.7539036,10.135392 4.5567522,10.988639 5.34341,11.400507 l 0.6224515,0.325895 0.030417,3.028605 0.030417,3.028606 0.286017,0.144642 c 0.2138884,0.108167 1.2821843,0.145068 4.2361965,0.14633 3.391923,0.0015 3.986114,-0.02348 4.204448,-0.176411 z"
     id="path1995"
     inkscape:connector-curvature="0" /><path
     style="fill:#ffffff;fill-opacity:1;stroke-width:0.43240359;stroke-miterlimit:4;stroke-dasharray:none"
     d="m 6.9991525,15.959746 v -0.972458 h 3.4894065 3.489407 v 0.972458 0.972457 H 10.488559 6.9991525 Z"
     id="path1997"
     inkscape:connector-curvature="0" /><path
     style="fill:#ffffff;fill-opacity:1;stroke-width:0.43240359;stroke-miterlimit:4;stroke-dasharray:none"
     d="m 6.9991525,12.602477 c 0,-1.544373 0.029014,-1.489552 -1.0647702,-2.011837 C 4.2725336,9.7971041 3.5568305,7.652208 4.4023221,5.9991974 5.284699,4.274073 7.3211477,3.5579389 8.9694393,4.3931327 L 9.6240482,4.7248248 10.342321,4.3989332 c 0.888802,-0.4032638 2.090512,-0.4531324 3.03633,-0.1260017 0.757443,0.2619776 1.764624,1.1643517 2.178423,1.9517383 0.272313,0.5181625 0.306278,0.7089553 0.307373,1.7266014 0.0011,1.0447074 -0.02846,1.2026739 -0.340682,1.8188776 -0.211852,0.4181192 -0.570886,0.8724912 -0.943856,1.1944902 l -0.601943,0.519679 v 1.236655 1.236654 H 10.488559 6.9991525 Z M 14.870339,7.8711864 c 0.190615,-0.1906147 0.171496,-0.8178313 -0.04039,-1.3250729 -0.385544,-0.922963 -1.30901,-1.5472592 -2.203418,-1.4895897 -0.499526,0.032208 -0.538908,0.057711 -0.574692,0.3721564 -0.0449,0.3945307 0.210295,0.6348791 0.674091,0.6348791 0.564657,0 1.252037,0.769449 1.252037,1.401522 0,0.3331173 0.199223,0.5433933 0.514831,0.5433933 0.132139,0 0.302034,-0.06178 0.377542,-0.1372882 z"
     id="path1999"
     inkscape:connector-curvature="0" /></svg>