<?xml version="1.0" encoding="UTF-8" standalone="no"?>
<!-- Generator: Adobe Illustrator 20.1.0, SVG Export Plug-In . SVG Version: 6.00 Build 0)  -->

<svg
   xmlns:dc="http://purl.org/dc/elements/1.1/"
   xmlns:cc="http://creativecommons.org/ns#"
   xmlns:rdf="http://www.w3.org/1999/02/22-rdf-syntax-ns#"
   xmlns:svg="http://www.w3.org/2000/svg"
   xmlns="http://www.w3.org/2000/svg"
   xmlns:sodipodi="http://sodipodi.sourceforge.net/DTD/sodipodi-0.dtd"
   xmlns:inkscape="http://www.inkscape.org/namespaces/inkscape"
   version="1.1"
   id="Layer_1"
   x="0px"
   y="0px"
   viewBox="0 0 27 27"
   style="enable-background:new 0 0 27 27;"
   xml:space="preserve"
   sodipodi:docname="icon_tailored.svg"
   inkscape:version="0.92.2 5c3e80d, 2017-08-06"><metadata
     id="metadata35"><rdf:RDF><cc:Work
         rdf:about=""><dc:format>image/svg+xml</dc:format><dc:type
           rdf:resource="http://purl.org/dc/dcmitype/StillImage" /></cc:Work></rdf:RDF></metadata><defs
     id="defs33" /><sodipodi:namedview
     pagecolor="#ffffff"
     bordercolor="#666666"
     borderopacity="1"
     objecttolerance="10"
     gridtolerance="10"
     guidetolerance="10"
     inkscape:pageopacity="0"
     inkscape:pageshadow="2"
     inkscape:window-width="986"
     inkscape:window-height="678"
     id="namedview31"
     showgrid="false"
     inkscape:zoom="8.7407407"
     inkscape:cx="13.5"
     inkscape:cy="13.5"
     inkscape:window-x="0"
     inkscape:window-y="0"
     inkscape:window-maximized="0"
     inkscape:current-layer="Layer_1" /><style
     type="text/css"
     id="style2">
	.st0{fill:#231F20;}
	.st1{fill:#F9A58D;}
</style><g
     id="g6"><path
       class="st0"
       d="M24.5,27h-22C1.1,27,0,25.9,0,24.5v-22C0,1.1,1.1,0,2.5,0h22C25.9,0,27,1.1,27,2.5v22C27,25.9,25.9,27,24.5,27   z M2.5,1C1.7,1,1,1.7,1,2.5v22C1,25.3,1.7,26,2.5,26h22c0.8,0,1.5-0.7,1.5-1.5v-22C26,1.7,25.3,1,24.5,1H2.5z"
       id="path4" /></g><g
     id="g10"><path
       class="st0"
       d="M5,24c-1.1,0-2-0.9-2-2s0.9-2,2-2s2,0.9,2,2S6.1,24,5,24z M5,21c-0.6,0-1,0.4-1,1s0.4,1,1,1s1-0.4,1-1   S5.6,21,5,21z"
       id="path8" /></g><g
     id="g14"><path
       class="st0"
       d="M10,24c-1.1,0-2-0.9-2-2s0.9-2,2-2s2,0.9,2,2S11.1,24,10,24z M10,21c-0.6,0-1,0.4-1,1s0.4,1,1,1s1-0.4,1-1   S10.6,21,10,21z"
       id="path12" /></g><g
     id="g20"><g
       id="g18"><path
         class="st1"
         d="M21,9.5c1.9,0,3.5,1.6,3.5,3.5s-1.6,3.5-3.5,3.5s-3.5-1.6-3.5-3.5S19.1,9.5,21,9.5 M21,8.5    c-2.5,0-4.5,2-4.5,4.5s2,4.5,4.5,4.5s4.5-2,4.5-4.5S23.5,8.5,21,8.5L21,8.5z"
         id="path16"
         style="fill:#d6ccff;fill-opacity:1" /></g></g><path
     class="st0"
     d="M17.8,2.9C17.8,2.9,17.8,2.8,17.8,2.9C17.8,2.8,17.8,2.8,17.8,2.9C16.4,2.3,15,2,13.5,2C11.9,2,10.4,2.3,9,2.9  c0,0,0,0,0,0c0,0,0,0,0,0C6.2,4.1,4,6.4,2.9,9.2c0,0,0,0,0,0c0,0,0,0,0,0C2.3,10.6,2,12,2,13.5C2,13.8,2.2,14,2.5,14h9  c0.3,0,0.5-0.2,0.5-0.5c0-0.8,0.7-1.5,1.5-1.5s1.5,0.7,1.5,1.5c0,0.3,0.2,0.5,0.5,0.5h1.1c-0.1-0.3-0.1-0.7-0.1-1H16  c-0.2-1.1-1.2-2-2.5-2c-1.2,0-2.2,0.9-2.4,2H3c0-1,0.2-2,0.6-3L5.9,11C6,11,6,11,6.1,11c0.2,0,0.4-0.1,0.5-0.3  c0.1-0.3,0-0.5-0.3-0.7L4,9.1c1-2.2,2.8-4,5-5.1l1,2.3c0.1,0.2,0.3,0.3,0.5,0.3c0.1,0,0.1,0,0.2,0c0.3-0.1,0.4-0.4,0.3-0.7l-1-2.3  C11,3.2,12.2,3,13.5,3c1.2,0,2.4,0.2,3.5,0.6L16,5.9c-0.1,0.3,0,0.5,0.3,0.7c0.1,0,0.1,0,0.2,0c0.2,0,0.4-0.1,0.5-0.3L17.9,4  c2.2,1,4,2.8,5.1,5c0.6,0.3,1.1,0.7,1.6,1.3C23.5,6.9,21,4.2,17.8,2.9z"
     id="path22" /><path
     class="st1"
     d="M10.3,8.9c0.1-0.1,0.2-0.3,0.1-0.5c0-0.2-0.2-0.3-0.3-0.4L8,7.4c-0.2-0.1-0.4,0-0.5,0.1S7.3,7.8,7.4,8l0.7,2.1  c0.1,0.2,0.2,0.3,0.4,0.3c0,0,0.1,0,0.1,0c0.1,0,0.3-0.1,0.4-0.1L9.3,10l2.2,2.2c0.2-0.3,0.4-0.5,0.7-0.7L10,9.3L10.3,8.9z M8.8,9  L8.6,8.6L9,8.8L8.8,9z"
     id="path24"
     style="fill:#ffffff;fill-opacity:1" /><g
     id="g28"><path
       class="st1"
       d="M20,15c-0.1,0-0.3,0-0.4-0.1l-1-1c-0.2-0.2-0.2-0.5,0-0.7s0.5-0.2,0.7,0l0.6,0.6l2.6-2.6   c0.2-0.2,0.5-0.2,0.7,0s0.2,0.5,0,0.7l-3,3C20.3,15,20.1,15,20,15z"
       id="path26"
       style="fill:#d6ccff;fill-opacity:1" /></g><path
     style="fill:#ffffff;fill-opacity:1;stroke-width:0.43240359;stroke-miterlimit:4;stroke-dasharray:none"
     d="M 1.9071261,25.800721 C 1.7038632,25.712357 1.4337697,25.469828 1.3069181,25.261766 1.0797505,24.889169 1.076279,24.712138 1.076279,13.5 1.076279,2.2837552 1.079671,2.1109621 1.3071701,1.7378189 1.7588517,0.9969725 1.1965596,1.029661 13.488559,1.029661 c 12.189252,0 11.675617,-0.027969 12.167315,0.6625561 l 0.245821,0.3452236 V 13.5 24.962559 l -0.245821,0.345224 c -0.491982,0.690924 0.02595,0.662969 -12.192242,0.658078 C 4.1174762,25.96212 2.2158834,25.934946 1.9071261,25.800721 Z M 5.798378,23.867904 C 7.6097437,23.092872 7.3403285,20.439271 5.406153,20.00469 4.0367138,19.696998 2.6961503,21.037561 3.0038429,22.407 c 0.2838629,1.263382 1.6216597,1.962744 2.7945351,1.460904 z m 5.403313,-0.236114 c 0.796738,-0.607702 1.054474,-1.642698 0.628296,-2.523065 -0.736047,-1.52047 -2.9256222,-1.52047 -3.6616692,0 -0.282763,0.58411 -0.2869207,1.119607 -0.013319,1.715428 0.3892019,0.847562 1.0363943,1.231424 1.9759762,1.171989 0.493204,-0.0312 0.747283,-0.117658 1.070716,-0.364352 z m 11.524834,-6.462884 c 1.822088,-0.700773 3.068079,-2.920464 2.72774,-4.859376 -0.06731,-0.383483 -0.272303,-1.00614 -0.455532,-1.383683 C 24.815502,10.548305 24.505048,9.8494131 24.308833,9.3727541 22.404697,4.7470878 17.646693,1.6890543 12.810626,1.9827 8.3133176,2.2557763 4.5555273,4.9927765 2.8419613,9.2434127 2.2685915,10.665702 1.990678,11.903038 1.990678,13.033525 c 0,0.675472 0.034829,0.820285 0.2212923,0.920077 0.1420917,0.07605 1.8793787,0.118432 4.8541162,0.118432 4.9897185,0 4.9923885,-3.17e-4 4.9923885,-0.591517 0,-0.768472 0.964982,-1.572781 1.676581,-1.397424 0.68331,0.168386 1.183588,0.724805 1.183588,1.316412 0,0.465014 0.31609,0.672529 1.02441,0.672529 0.643215,0 0.646309,0.0017 0.795828,0.429025 0.475839,1.360045 1.530792,2.348201 3.04205,2.849435 0.664212,0.220296 2.136668,0.129523 2.945593,-0.181588 z"
     id="path842"
     inkscape:connector-curvature="0" /><path
     style="fill:#ffffff;fill-opacity:1;stroke-width:0.43240359;stroke-miterlimit:4;stroke-dasharray:none"
     d="m 9.5872493,22.832703 c -0.8735856,-0.381049 -0.5497677,-1.781856 0.4119032,-1.781856 0.7717305,0 1.2266525,1.061484 0.6864405,1.601695 -0.125847,0.125848 -0.276086,0.228814 -0.333863,0.228814 -0.05778,0 -0.173614,0.02386 -0.257415,0.05303 -0.0838,0.02917 -0.3119808,-0.01659 -0.5070657,-0.101685 z"
     id="path844"
     inkscape:connector-curvature="0" /><path
     style="fill:#ffffff;fill-opacity:1;stroke-width:0.43240359;stroke-miterlimit:4;stroke-dasharray:none"
     d="M 4.6628769,22.8795 C 4.0415127,22.635894 3.8622387,21.800242 4.3308166,21.331664 c 0.3617538,-0.361754 0.8664741,-0.365478 1.2803845,-0.0094 0.7732583,0.665129 0.00288,1.930202 -0.9483242,1.557283 z"
     id="path846"
     inkscape:connector-curvature="0" /><path
     style="fill:#ffffff;fill-opacity:1;stroke-width:0.43240359;stroke-miterlimit:4;stroke-dasharray:none"
     d="m 3.0764011,12.327331 c 0.084508,-0.654667 0.3769619,-1.892098 0.4986513,-2.109895 0.054119,-0.09686 0.4206779,0.01395 1.2650705,0.382422 1.0021703,0.437327 1.231617,0.499324 1.46106,0.394783 C 6.6449314,10.838018 6.7446237,10.583672 6.5928378,10.250538 6.5060956,10.06016 6.1640259,9.8738831 5.3193233,9.5570354 4.6841193,9.3187706 4.1644068,9.076248 4.1644068,9.0180963 c 0,-0.3978701 1.1271118,-2.026564 2.0211709,-2.9206231 0.7433466,-0.7433467 2.5936091,-2.0392405 2.7625378,-1.9348369 0.051563,0.031867 0.317912,0.5767987 0.5918875,1.2109585 0.506179,1.1716313 0.678054,1.3483517 1.209435,1.2435281 0.42264,-0.083373 0.389775,-0.4789572 -0.14478,-1.7426555 -0.28492,-0.6735564 -0.496338,-1.2463469 -0.469817,-1.2728677 0.02652,-0.026521 0.380093,-0.1391035 0.785715,-0.2501836 1.063727,-0.2913028 3.964367,-0.2871585 5.113554,0.00731 0.456197,0.1168946 0.829449,0.2558981 0.829449,0.3088966 0,0.052999 -0.207904,0.575154 -0.462011,1.1603457 -0.254106,0.5851916 -0.447168,1.1874997 -0.429025,1.3384624 0.04214,0.3506387 0.318115,0.5229088 0.688696,0.4298987 0.243026,-0.060995 0.369955,-0.2701562 0.773937,-1.2753214 0.265779,-0.6612981 0.519212,-1.20236 0.563185,-1.20236 0.14175,0 1.421235,0.8039543 2.046231,1.2857329 0.797658,0.6148765 1.532564,1.43681 2.216002,2.4784234 0.305583,0.4657309 0.541953,0.8594129 0.525269,0.8748488 -0.01668,0.015436 -0.407978,-0.053553 -0.869541,-0.1533072 -2.032554,-0.4392822 -4.089464,0.5860263 -4.975925,2.480349 -0.188278,0.402343 -0.366361,0.981675 -0.395738,1.287404 -0.06869,0.714909 -0.386808,0.776227 -0.658071,0.126846 -0.514327,-1.23126 -2.072792,-1.869955 -3.305773,-1.354783 -0.46588,0.194657 -1.162188,0.902316 -1.389338,1.411986 L 11.025743,12.92797 H 7.0123052 2.9988676 Z"
     id="path848"
     inkscape:connector-curvature="0" /><path
     style="fill:#ffffff;fill-opacity:1;stroke-width:0.43240359;stroke-miterlimit:4;stroke-dasharray:none"
     d="m 19.874637,16.26928 c -0.796472,-0.284629 -1.515315,-0.896524 -1.92752,-1.640746 -0.302153,-0.545529 -0.339914,-0.721731 -0.339914,-1.586161 0,-0.781163 0.05131,-1.076596 0.260825,-1.50185 0.600438,-1.218702 1.803729,-1.9842442 3.114175,-1.9812608 0.934892,0.00213 1.455611,0.1804895 2.16577,0.7418378 1.506014,1.190435 1.727593,3.511337 0.471471,4.938366 -0.951653,1.081136 -2.448973,1.492895 -3.744807,1.029814 z m 1.878381,-2.910809 c 0.89745,-0.895849 1.631728,-1.716658 1.631728,-1.824021 0,-0.107362 -0.110642,-0.272701 -0.245871,-0.367419 -0.357317,-0.250274 -0.6296,-0.07006 -2.034126,1.346338 l -1.193133,1.203214 -0.383941,-0.337105 c -0.552785,-0.485351 -1.062421,-0.404568 -1.062421,0.168408 0,0.301955 1.125865,1.439402 1.424746,1.439402 0.144877,0 0.840919,-0.608542 1.863018,-1.628817 z"
     id="path850"
     inkscape:connector-curvature="0" /></svg>