<?xml version="1.0" encoding="utf-8"?>
<!-- Generator: Adobe Illustrator 20.1.0, SVG Export Plug-In . SVG Version: 6.00 Build 0)  -->
<svg version="1.1" id="Layer_1" xmlns="http://www.w3.org/2000/svg" xmlns:xlink="http://www.w3.org/1999/xlink" x="0px" y="0px"
	 viewBox="0 0 21 27" style="enable-background:new 0 0 21 27;" xml:space="preserve">
<style type="text/css">
	.st0{fill:#231F20;}
</style>
<g>
	<path class="st0" d="M10.5,25c-1.1,0-2-0.9-2-2s0.9-2,2-2s2,0.9,2,2S11.6,25,10.5,25z M10.5,22c-0.6,0-1,0.4-1,1s0.4,1,1,1
		s1-0.4,1-1S11.1,22,10.5,22z"/>
</g>
<g>
	<rect x="3.5" y="4" class="st0" width="14" height="1"/>
	<rect x="3.5" y="7" class="st0" width="14" height="1"/>
	<rect x="3.5" y="10" class="st0" width="13" height="1"/>
	<rect x="3.5" y="13" class="st0" width="14" height="1"/>
	<rect x="3.5" y="16" class="st0" width="10" height="1"/>
</g>
<path class="st0" d="M18.5,0h-16C1.1,0,0,1.1,0,2.5v22C0,25.9,1.1,27,2.5,27h16c1.4,0,2.5-1.1,2.5-2.5v-22C21,1.1,19.9,0,18.5,0z
	 M2.5,1h16C19.3,1,20,1.7,20,2.5V19H1V2.5C1,1.7,1.7,1,2.5,1z M18.5,26h-16C1.7,26,1,25.3,1,24.5V20h19v4.5C20,25.3,19.3,26,18.5,26
	z"/>
</svg>
