<?xml version="1.0" encoding="UTF-8" standalone="no"?>
<!-- Generator: Adobe Illustrator 20.1.0, SVG Export Plug-In . SVG Version: 6.00 Build 0)  -->

<svg
   xmlns:dc="http://purl.org/dc/elements/1.1/"
   xmlns:cc="http://creativecommons.org/ns#"
   xmlns:rdf="http://www.w3.org/1999/02/22-rdf-syntax-ns#"
   xmlns:svg="http://www.w3.org/2000/svg"
   xmlns="http://www.w3.org/2000/svg"
   xmlns:sodipodi="http://sodipodi.sourceforge.net/DTD/sodipodi-0.dtd"
   xmlns:inkscape="http://www.inkscape.org/namespaces/inkscape"
   version="1.1"
   id="Layer_1"
   x="0px"
   y="0px"
   viewBox="0 0 32 32"
   style="enable-background:new 0 0 32 32;"
   xml:space="preserve"
   sodipodi:docname="icon_easy_cook.svg"
   inkscape:version="0.92.2 5c3e80d, 2017-08-06"><metadata
     id="metadata5115"><rdf:RDF><cc:Work
         rdf:about=""><dc:format>image/svg+xml</dc:format><dc:type
           rdf:resource="http://purl.org/dc/dcmitype/StillImage" /></cc:Work></rdf:RDF></metadata><defs
     id="defs5113" /><sodipodi:namedview
     pagecolor="#ffffff"
     bordercolor="#666666"
     borderopacity="1"
     objecttolerance="10"
     gridtolerance="10"
     guidetolerance="10"
     inkscape:pageopacity="0"
     inkscape:pageshadow="2"
     inkscape:window-width="1226"
     inkscape:window-height="792"
     id="namedview5111"
     showgrid="false"
     inkscape:zoom="7.375"
     inkscape:cx="-8.4067797"
     inkscape:cy="16"
     inkscape:window-x="0"
     inkscape:window-y="0"
     inkscape:window-maximized="0"
     inkscape:current-layer="Layer_1" /><style
     type="text/css"
     id="style5090">
	.st0{fill:#F9A58D;}
	.st1{fill:#231F20;}
	.st2{fill:#FFFFFF;}
</style><g
     id="g5096"><g
       id="g5094"><path
         class="st0"
         d="M25,21c2.2,0,4,1.8,4,4s-1.8,4-4,4s-4-1.8-4-4S22.8,21,25,21 M25,20c-2.8,0-5,2.2-5,5s2.2,5,5,5s5-2.2,5-5    S27.8,20,25,20L25,20z"
         id="path5092"
         style="fill:#d6ccff;fill-opacity:1" /></g></g><g
     id="g5100"><path
       class="st0"
       d="M27,25.5h-2c-0.3,0-0.5-0.2-0.5-0.5v-3c0-0.3,0.2-0.5,0.5-0.5s0.5,0.2,0.5,0.5v2.5H27c0.3,0,0.5,0.2,0.5,0.5   S27.3,25.5,27,25.5z"
       id="path5098"
       style="fill:#d6ccff;fill-opacity:1" /></g><path
     class="st1"
     d="M28,11.5h-1.5h-0.2c-0.6-1.1-3.1-5-10.3-5s-9.7,3.9-10.3,5H5.5H4c-0.3,0-0.5,0.2-0.5,0.5s0.2,0.5,0.5,0.5h1.5  V24c0,1.9,1.6,3.5,3.5,3.5h11.7c-0.2-0.3-0.3-0.6-0.4-1H9c-1.4,0-2.5-1.1-2.5-2.5V12.5h19v7.6c0.3,0,0.7,0.1,1,0.2v-7.8H28  c0.3,0,0.5-0.2,0.5-0.5S28.3,11.5,28,11.5z M16,7.5c5.8,0,8.3,2.7,9.2,4H6.8C7.7,10.2,10.2,7.5,16,7.5z"
     id="path5102" /><g
     id="g5108"><line
       class="st2"
       x1="14"
       y1="5"
       x2="18"
       y2="5"
       id="line5104" /><path
       class="st1"
       d="M18,5.5h-4c-0.3,0-0.5-0.2-0.5-0.5s0.2-0.5,0.5-0.5h4c0.3,0,0.5,0.2,0.5,0.5S18.3,5.5,18,5.5z"
       id="path5106" /></g><path
     style="fill:#ffffff;fill-opacity:1;stroke:none;stroke-width:0.51247835;stroke-miterlimit:4;stroke-dasharray:none;stroke-opacity:1"
     d="M 7.9867429,26.199946 C 7.3753641,25.881164 7.0926331,25.588493 6.8177263,24.989831 6.5882611,24.490126 6.5684334,23.980772 6.5656898,18.515254 l -0.00298,-5.932203 h 9.4237292 9.423728 v 3.728813 3.728814 h -0.740676 c -1.676426,0 -3.452134,1.210053 -4.221908,2.877013 -0.348931,0.755615 -0.393348,1.001087 -0.393348,2.173851 v 1.322051 L 14.223729,26.41278 C 9.2013725,26.412102 8.3368796,26.382551 7.9867429,26.199985 Z"
     id="path6809"
     inkscape:connector-curvature="0" /><path
     style="fill:#ffffff;fill-opacity:1;stroke:none;stroke-width:0.51247835;stroke-miterlimit:4;stroke-dasharray:none;stroke-opacity:1"
     d="M 7.094277,11.247313 C 7.324093,10.817898 8.8168917,9.5134342 9.5745866,9.0799252 11.435345,8.015307 14.091721,7.4754965 16.8,7.6116263 c 2.461464,0.1237237 4.604358,0.7434242 6.119603,1.7697195 0.596317,0.4038933 2.083787,1.8349042 2.083787,2.0046932 0,0.06175 -4.059774,0.112266 -9.02172,0.112266 -8.7377438,0 -9.0174916,-0.0079 -8.887393,-0.250992 z"
     id="path6811"
     inkscape:connector-curvature="0" /><path
     style="fill:#ffffff;fill-opacity:1;stroke:none;stroke-width:0.51247835;stroke-miterlimit:4;stroke-dasharray:none;stroke-opacity:1"
     d="m 23.813124,28.790546 c -0.959152,-0.299509 -1.81408,-1.034316 -2.371161,-2.038004 -0.430777,-0.776127 -0.435449,-2.733917 -0.0084,-3.525423 1.336034,-2.476322 4.632463,-2.913286 6.479527,-0.858907 0.776536,0.863696 1.077266,1.756478 0.991957,2.944841 -0.08137,1.133455 -0.434206,1.832841 -1.331796,2.639852 -1.067149,0.959458 -2.411175,1.258867 -3.760115,0.837641 z m 3.612709,-3.559926 c 0.083,-0.148308 0.08372,-0.321826 0.002,-0.474576 -0.103043,-0.192538 -0.304527,-0.24079 -1.005452,-0.24079 h -0.876585 v -1.328813 c 0,-0.852731 -0.0583,-1.38711 -0.162712,-1.491526 -0.232466,-0.232466 -0.742731,-0.201009 -0.83973,0.05177 -0.107116,0.27914 -0.107116,3.224105 0,3.503244 0.127156,0.331364 2.695895,0.314158 2.882512,-0.01931 z"
     id="path6813"
     inkscape:connector-curvature="0" /></svg>