<?xml version="1.0" encoding="UTF-8" standalone="no"?>
<!-- Generator: Adobe Illustrator 20.1.0, SVG Export Plug-In . SVG Version: 6.00 Build 0)  -->

<svg
   xmlns:dc="http://purl.org/dc/elements/1.1/"
   xmlns:cc="http://creativecommons.org/ns#"
   xmlns:rdf="http://www.w3.org/1999/02/22-rdf-syntax-ns#"
   xmlns:svg="http://www.w3.org/2000/svg"
   xmlns="http://www.w3.org/2000/svg"
   xmlns:sodipodi="http://sodipodi.sourceforge.net/DTD/sodipodi-0.dtd"
   xmlns:inkscape="http://www.inkscape.org/namespaces/inkscape"
   version="1.1"
   id="Layer_1"
   x="0px"
   y="0px"
   viewBox="0 0 32 32"
   style="enable-background:new 0 0 32 32;"
   xml:space="preserve"
   sodipodi:docname="icon_diary.svg"
   inkscape:version="0.92.2 5c3e80d, 2017-08-06"><metadata
     id="metadata984"><rdf:RDF><cc:Work
         rdf:about=""><dc:format>image/svg+xml</dc:format><dc:type
           rdf:resource="http://purl.org/dc/dcmitype/StillImage" /></cc:Work></rdf:RDF></metadata><defs
     id="defs982" /><sodipodi:namedview
     pagecolor="#ffffff"
     bordercolor="#666666"
     borderopacity="1"
     objecttolerance="10"
     gridtolerance="10"
     guidetolerance="10"
     inkscape:pageopacity="0"
     inkscape:pageshadow="2"
     inkscape:window-width="1285"
     inkscape:window-height="791"
     id="namedview980"
     showgrid="false"
     inkscape:zoom="18.375"
     inkscape:cx="6.2040816"
     inkscape:cy="16"
     inkscape:window-x="0"
     inkscape:window-y="0"
     inkscape:window-maximized="0"
     inkscape:current-layer="Layer_1" /><style
     type="text/css"
     id="style949">
	.st0{fill:#F9A58D;}
	.st1{fill:#231F20;}
</style><g
     id="g953"><path
       class="st0"
       d="M22,8.5H9C8.7,8.5,8.5,8.3,8.5,8S8.7,7.5,9,7.5h13c0.3,0,0.5,0.2,0.5,0.5S22.3,8.5,22,8.5z"
       id="path951"
       style="fill:#d6ccff;fill-opacity:1" /></g><g
     id="g957"><path
       class="st0"
       d="M22,10.5H9c-0.3,0-0.5-0.2-0.5-0.5S8.7,9.5,9,9.5h13c0.3,0,0.5,0.2,0.5,0.5S22.3,10.5,22,10.5z"
       id="path955"
       style="fill:#d6ccff;fill-opacity:1" /></g><g
     id="g961"><path
       class="st0"
       d="M21,12.5H9c-0.3,0-0.5-0.2-0.5-0.5s0.2-0.5,0.5-0.5h12c0.3,0,0.5,0.2,0.5,0.5S21.3,12.5,21,12.5z"
       id="path959"
       style="fill:#d6ccff;fill-opacity:1" /></g><g
     id="g965"><path
       class="st0"
       d="M22,14.5H9c-0.3,0-0.5-0.2-0.5-0.5s0.2-0.5,0.5-0.5h13c0.3,0,0.5,0.2,0.5,0.5S22.3,14.5,22,14.5z"
       id="path963"
       style="fill:#d6ccff;fill-opacity:1" /></g><g
     id="g969"><path
       class="st0"
       d="M18,16.5H9c-0.3,0-0.5-0.2-0.5-0.5s0.2-0.5,0.5-0.5h9c0.3,0,0.5,0.2,0.5,0.5S18.3,16.5,18,16.5z"
       id="path967"
       style="fill:#d6ccff;fill-opacity:1" /></g><path
     class="st0"
     d="M30.5,11.8c0-0.1-0.1-0.2-0.2-0.3l-3.5-1.9c-0.2-0.1-0.5,0-0.7,0.2l-8.5,15.8c0,0.1-0.1,0.1-0.1,0.2l-0.1,4.5  c0,0.2,0.1,0.4,0.3,0.5c0.1,0,0.2,0.1,0.2,0.1c0.1,0,0.2,0,0.3-0.1l3.7-2.6c0.1,0,0.1-0.1,0.2-0.2L29,14.8c0,0,0,0,0,0c0,0,0,0,0,0  l1.4-2.6C30.5,12,30.5,11.9,30.5,11.8z M21.1,27.4l-2.7,1.9l0.1-3.4l6.8-12.7l2.6,1.4L21.1,27.4z M28.4,13.9l-2.6-1.4l0.9-1.8  l2.6,1.4L28.4,13.9z"
     id="path971"
     style="fill:#d6ccff;fill-opacity:1" /><g
     id="g977"><path
       class="st1"
       d="M24.5,23.1V27c0,0.8-0.7,1.5-1.5,1.5h-1.8l-1.4,1H23c1.4,0,2.5-1.1,2.5-2.5v-5.7L24.5,23.1z"
       id="path973" /><path
       class="st1"
       d="M17.3,28.5H7c-0.8,0-1.5-0.7-1.5-1.5v-2.5H7v-1H5.5v-4H7v-1H5.5v-4H7v-1H5.5v-4H7v-1H5.5V5   c0-0.8,0.7-1.5,1.5-1.5h16c0.8,0,1.5,0.7,1.5,1.5v7.6l1-1.9V5c0-1.4-1.1-2.5-2.5-2.5H7C5.6,2.5,4.5,3.6,4.5,5v3.5H3v1h1.5v4H3v1   h1.5v4H3v1h1.5v4H3v1h1.5V27c0,1.4,1.1,2.5,2.5,2.5h10.3L17.3,28.5z"
       id="path975" /></g><path
     style="fill:#ffffff;fill-opacity:1;stroke-width:0.20568858;stroke-miterlimit:4;stroke-dasharray:none"
     d="m 18.405977,29.19446 c 2.95e-4,-0.04035 0.02529,-0.801151 0.05555,-1.690659 l 0.05502,-1.617286 3.37368,-6.301081 c 1.855524,-3.465594 3.398163,-6.309341 3.428086,-6.319437 0.04061,-0.0137 2.444208,1.238579 2.547706,1.32736 0.01012,0.0087 -1.508245,2.891442 -3.37415,6.40613 l -3.392554,6.390342 -1.189876,0.838419 c -1.494133,1.052807 -1.504145,1.059242 -1.503467,0.966212 z"
     id="path826"
     inkscape:connector-curvature="0" /><path
     style="fill:#ffffff;fill-opacity:1;stroke-width:0.20568858;stroke-miterlimit:4;stroke-dasharray:none"
     d="m 27.112925,13.19583 c -0.673469,-0.362743 -1.240594,-0.674894 -1.260277,-0.693668 -0.01968,-0.01877 0.16399,-0.42987 0.408163,-0.913547 l 0.443951,-0.879412 1.22449,0.66176 c 0.673469,0.363969 1.254659,0.681284 1.291533,0.705146 0.04902,0.03172 -0.04985,0.276835 -0.367667,0.911529 -0.239091,0.477479 -0.452934,0.86805 -0.475207,0.867935 -0.02227,-1.15e-4 -0.591516,-0.297 -1.264986,-0.659743 z"
     id="path828"
     inkscape:connector-curvature="0" /></svg>