<?xml version="1.0" encoding="UTF-8" standalone="no"?>
<!-- Generator: Adobe Illustrator 20.1.0, SVG Export Plug-In . SVG Version: 6.00 Build 0)  -->

<svg
   xmlns:dc="http://purl.org/dc/elements/1.1/"
   xmlns:cc="http://creativecommons.org/ns#"
   xmlns:rdf="http://www.w3.org/1999/02/22-rdf-syntax-ns#"
   xmlns:svg="http://www.w3.org/2000/svg"
   xmlns="http://www.w3.org/2000/svg"
   xmlns:sodipodi="http://sodipodi.sourceforge.net/DTD/sodipodi-0.dtd"
   xmlns:inkscape="http://www.inkscape.org/namespaces/inkscape"
   version="1.1"
   id="Layer_1"
   x="0px"
   y="0px"
   viewBox="0 0 32 32"
   style="enable-background:new 0 0 32 32;"
   xml:space="preserve"
   sodipodi:docname="icon-vegan.svg"
   inkscape:version="0.92.2 5c3e80d, 2017-08-06"><metadata
     id="metadata15"><rdf:RDF><cc:Work
         rdf:about=""><dc:format>image/svg+xml</dc:format><dc:type
           rdf:resource="http://purl.org/dc/dcmitype/StillImage" /></cc:Work></rdf:RDF></metadata><defs
     id="defs13" /><sodipodi:namedview
     pagecolor="#ffffff"
     bordercolor="#666666"
     borderopacity="1"
     objecttolerance="10"
     gridtolerance="10"
     guidetolerance="10"
     inkscape:pageopacity="0"
     inkscape:pageshadow="2"
     inkscape:window-width="879"
     inkscape:window-height="694"
     id="namedview11"
     showgrid="false"
     inkscape:zoom="7.375"
     inkscape:cx="16"
     inkscape:cy="16"
     inkscape:window-x="0"
     inkscape:window-y="0"
     inkscape:window-maximized="0"
     inkscape:current-layer="Layer_1" /><style
     type="text/css"
     id="style2">
	.st0{fill:#F9A58D;}
	.st1{fill:#231F20;}
</style><path
     class="st0"
     d="M20.5,10c0-0.3-0.2-0.5-0.5-0.5c-1.7,0-2.8,0.7-3.5,1.6V9.5c3.1-0.3,4-3,4-4.5c0-0.3-0.2-0.5-0.5-0.5  c-2.2,0-3.4,1.1-4,2.4c-0.6-1.2-1.8-2.4-4-2.4c-0.3,0-0.5,0.2-0.5,0.5c0,1.5,0.9,4.2,4,4.5v1.6c-0.7-0.9-1.8-1.6-3.5-1.6  c-0.3,0-0.5,0.2-0.5,0.5c0,1.5,0.9,4.2,4,4.5v1.6c-0.7-0.9-1.8-1.6-3.5-1.6c-0.3,0-0.5,0.2-0.5,0.5c0,1.5,0.9,4.2,4,4.5v1.6  c-0.7-0.9-1.8-1.6-3.5-1.6c-0.3,0-0.5,0.2-0.5,0.5c0,1.5,0.9,4.2,4,4.5V27c0,0.3,0.2,0.5,0.5,0.5s0.5-0.2,0.5-0.5v-2.5  c3.1-0.3,4-3,4-4.5c0-0.3-0.2-0.5-0.5-0.5c-1.7,0-2.8,0.7-3.5,1.6v-1.6c3.1-0.3,4-3,4-4.5c0-0.3-0.2-0.5-0.5-0.5  c-1.7,0-2.8,0.7-3.5,1.6v-1.6C19.6,14.2,20.5,11.5,20.5,10z M19.4,10.5c-0.1,0.9-0.7,2.7-2.9,2.9C16.7,12.6,17.3,10.8,19.4,10.5z   M19.4,5.5c-0.1,0.9-0.7,2.7-2.9,2.9C16.7,7.6,17.3,5.8,19.4,5.5z M12.6,5.5c2.2,0.3,2.8,2,2.9,2.9C13.3,8.2,12.7,6.4,12.6,5.5z   M12.6,10.5c2.2,0.3,2.8,2,2.9,2.9C13.3,13.2,12.7,11.4,12.6,10.5z M12.6,15.5c2.2,0.3,2.8,2,2.9,2.9C13.3,18.2,12.7,16.4,12.6,15.5  z M12.6,20.5c2.2,0.3,2.8,2,2.9,2.9C13.3,23.2,12.7,21.4,12.6,20.5z M19.4,20.5c-0.1,0.9-0.7,2.7-2.9,2.9  C16.7,22.6,17.3,20.8,19.4,20.5z M19.4,15.5c-0.1,0.9-0.7,2.7-2.9,2.9C16.7,17.6,17.3,15.8,19.4,15.5z"
     id="path4"
     style="fill:#d6ccff;fill-opacity:1" /><path
     class="st1"
     d="M30.5,10c0-0.3-0.2-0.5-0.5-0.5c-1.7,0-2.8,0.7-3.5,1.6V9.5c3.1-0.3,4-3,4-4.5c0-0.3-0.2-0.5-0.5-0.5  c-2.2,0-3.4,1.1-4,2.4c-0.6-1.2-1.8-2.4-4-2.4c-0.3,0-0.5,0.2-0.5,0.5c0,1.5,0.9,4.2,4,4.5v1.6c-0.7-0.9-1.8-1.6-3.5-1.6  c-0.3,0-0.5,0.2-0.5,0.5c0,1.5,0.9,4.2,4,4.5v1.6c-0.7-0.9-1.8-1.6-3.5-1.6c-0.3,0-0.5,0.2-0.5,0.5c0,1.5,0.9,4.2,4,4.5v1.6  c-0.7-0.9-1.8-1.6-3.5-1.6c-0.3,0-0.5,0.2-0.5,0.5c0,1.5,0.9,4.2,4,4.5V27c0,0.3,0.2,0.5,0.5,0.5s0.5-0.2,0.5-0.5v-2.5  c3.1-0.3,4-3,4-4.5c0-0.3-0.2-0.5-0.5-0.5c-1.7,0-2.8,0.7-3.5,1.6v-1.6c3.1-0.3,4-3,4-4.5c0-0.3-0.2-0.5-0.5-0.5  c-1.7,0-2.8,0.7-3.5,1.6v-1.6C29.6,14.2,30.5,11.5,30.5,10z M29.4,10.5c-0.1,0.9-0.7,2.7-2.9,2.9C26.7,12.6,27.3,10.8,29.4,10.5z   M29.4,5.5c-0.1,0.9-0.7,2.7-2.9,2.9C26.7,7.6,27.3,5.8,29.4,5.5z M22.6,5.5c2.2,0.3,2.8,2,2.9,2.9C23.3,8.2,22.7,6.4,22.6,5.5z   M22.6,10.5c2.2,0.3,2.8,2,2.9,2.9C23.3,13.2,22.7,11.4,22.6,10.5z M22.6,15.5c2.2,0.3,2.8,2,2.9,2.9C23.3,18.2,22.7,16.4,22.6,15.5  z M22.6,20.5c2.2,0.3,2.8,2,2.9,2.9C23.3,23.2,22.7,21.4,22.6,20.5z M29.4,20.5c-0.1,0.9-0.7,2.7-2.9,2.9  C26.7,22.6,27.3,20.8,29.4,20.5z M29.4,15.5c-0.1,0.9-0.7,2.7-2.9,2.9C26.7,17.6,27.3,15.8,29.4,15.5z"
     id="path6" /><path
     class="st1"
     d="M10.5,10c0-0.3-0.2-0.5-0.5-0.5c-1.7,0-2.8,0.7-3.5,1.6V9.5c3.1-0.3,4-3,4-4.5c0-0.3-0.2-0.5-0.5-0.5  c-2.2,0-3.4,1.1-4,2.4C5.4,5.6,4.2,4.5,2,4.5C1.7,4.5,1.5,4.7,1.5,5c0,1.5,0.9,4.2,4,4.5v1.6C4.8,10.2,3.7,9.5,2,9.5  c-0.3,0-0.5,0.2-0.5,0.5c0,1.5,0.9,4.2,4,4.5v1.6c-0.7-0.9-1.8-1.6-3.5-1.6c-0.3,0-0.5,0.2-0.5,0.5c0,1.5,0.9,4.2,4,4.5v1.6  c-0.7-0.9-1.8-1.6-3.5-1.6c-0.3,0-0.5,0.2-0.5,0.5c0,1.5,0.9,4.2,4,4.5V27c0,0.3,0.2,0.5,0.5,0.5s0.5-0.2,0.5-0.5v-2.5  c3.1-0.3,4-3,4-4.5c0-0.3-0.2-0.5-0.5-0.5c-1.7,0-2.8,0.7-3.5,1.6v-1.6c3.1-0.3,4-3,4-4.5c0-0.3-0.2-0.5-0.5-0.5  c-1.7,0-2.8,0.7-3.5,1.6v-1.6C9.6,14.2,10.5,11.5,10.5,10z M9.4,10.5c-0.1,0.9-0.7,2.7-2.9,2.9C6.7,12.6,7.3,10.8,9.4,10.5z   M9.4,5.5C9.3,6.4,8.7,8.2,6.6,8.5C6.7,7.6,7.3,5.8,9.4,5.5z M2.6,5.5c2.2,0.3,2.8,2,2.9,2.9C3.3,8.2,2.7,6.4,2.6,5.5z M2.6,10.5  c2.2,0.3,2.8,2,2.9,2.9C3.3,13.2,2.7,11.4,2.6,10.5z M2.6,15.5c2.2,0.3,2.8,2,2.9,2.9C3.3,18.2,2.7,16.4,2.6,15.5z M2.6,20.5  c2.2,0.3,2.8,2,2.9,2.9C3.3,23.2,2.7,21.4,2.6,20.5z M9.4,20.5c-0.1,0.9-0.7,2.7-2.9,2.9C6.7,22.6,7.3,20.8,9.4,20.5z M9.4,15.5  c-0.1,0.9-0.7,2.7-2.9,2.9C6.7,17.6,7.3,15.8,9.4,15.5z"
     id="path8" /></svg>