<?xml version="1.0" encoding="UTF-8" standalone="no"?>
<!-- Generator: Adobe Illustrator 20.1.0, SVG Export Plug-In . SVG Version: 6.00 Build 0)  -->

<svg
   xmlns:dc="http://purl.org/dc/elements/1.1/"
   xmlns:cc="http://creativecommons.org/ns#"
   xmlns:rdf="http://www.w3.org/1999/02/22-rdf-syntax-ns#"
   xmlns:svg="http://www.w3.org/2000/svg"
   xmlns="http://www.w3.org/2000/svg"
   xmlns:sodipodi="http://sodipodi.sourceforge.net/DTD/sodipodi-0.dtd"
   xmlns:inkscape="http://www.inkscape.org/namespaces/inkscape"
   version="1.1"
   id="Layer_1"
   x="0px"
   y="0px"
   viewBox="0 0 32 32"
   style="enable-background:new 0 0 32 32;"
   xml:space="preserve"
   sodipodi:docname="icon_challenge.svg"
   inkscape:version="0.92.2 5c3e80d, 2017-08-06"><metadata
     id="metadata27"><rdf:RDF><cc:Work
         rdf:about=""><dc:format>image/svg+xml</dc:format><dc:type
           rdf:resource="http://purl.org/dc/dcmitype/StillImage" /></cc:Work></rdf:RDF></metadata><defs
     id="defs25" /><sodipodi:namedview
     pagecolor="#ffffff"
     bordercolor="#666666"
     borderopacity="1"
     objecttolerance="10"
     gridtolerance="10"
     guidetolerance="10"
     inkscape:pageopacity="0"
     inkscape:pageshadow="2"
     inkscape:window-width="1302"
     inkscape:window-height="756"
     id="namedview23"
     showgrid="false"
     inkscape:zoom="10.429825"
     inkscape:cx="3.7719764"
     inkscape:cy="18.706549"
     inkscape:window-x="0"
     inkscape:window-y="0"
     inkscape:window-maximized="0"
     inkscape:current-layer="Layer_1" /><style
     type="text/css"
     id="style2">
	.st0{fill:#F9A58D;}
</style><g
     id="g8"><g
       id="g6"><path
         d="M16,3c2.5,2,4.7,3,7.8,3.2C24,9.3,25,11.5,27,14c-2,2.5-3,4.7-3.2,7.8C20.7,22,18.5,23,16,25c-2.5-2-4.7-3-7.8-3.2    C8,18.7,7,16.5,5,14c2-2.5,3-4.7,3.2-7.8C11.3,6,13.5,5,16,3 M16,2c-0.2,0-0.4,0.1-0.6,0.2C13,4.2,10.9,5,8.2,5.2    c-0.5,0-0.9,0.4-0.9,0.9C7,8.9,6.2,11,4.2,13.4c-0.3,0.4-0.3,0.9,0,1.3c1.9,2.4,2.8,4.5,3,7.2c0,0.5,0.4,0.9,0.9,0.9    c2.7,0.2,4.8,1.1,7.2,3c0.2,0.1,0.4,0.2,0.6,0.2s0.4-0.1,0.6-0.2c2.4-1.9,4.5-2.8,7.2-3c0.5,0,0.9-0.4,0.9-0.9    c0.2-2.7,1.1-4.8,3-7.2c0.3-0.4,0.3-0.9,0-1.3c-1.9-2.4-2.8-4.5-3-7.2c0-0.5-0.4-0.9-0.9-0.9c-2.7-0.2-4.8-1.1-7.2-3    C16.4,2.1,16.2,2,16,2L16,2z"
         id="path4" /></g></g><path
     class="st0"
     d="M14.5,25.1l-4,4.5V27c0-0.2-0.1-0.3-0.2-0.4s-0.3-0.1-0.4-0.1l-2.6,0.6l3.1-4C10.1,23,9.7,23,9.3,22.9l-3.7,4.8  c-0.1,0.2-0.1,0.4,0,0.6c0.1,0.2,0.3,0.3,0.5,0.2l3.4-0.8V31c0,0.2,0.1,0.4,0.3,0.5c0.1,0,0.1,0,0.2,0c0.1,0,0.3-0.1,0.4-0.2l5-5.6  C15.1,25.5,14.8,25.3,14.5,25.1z"
     id="path10"
     style="fill:#d6ccff;fill-opacity:1" /><path
     class="st0"
     d="M22.7,22.9c-0.4,0.1-0.7,0.1-1.1,0.2l3.1,4l-2.6-0.6c-0.1,0-0.3,0-0.4,0.1c-0.1,0.1-0.2,0.2-0.2,0.4v2.7l-4-4.5  c-0.3,0.2-0.5,0.4-0.8,0.6l5,5.6c0.1,0.1,0.2,0.2,0.4,0.2c0.1,0,0.1,0,0.2,0c0.2-0.1,0.3-0.3,0.3-0.5v-3.4l3.4,0.8  c0.2,0.1,0.4,0,0.5-0.2c0.1-0.2,0.1-0.4,0-0.6L22.7,22.9z"
     id="path12"
     style="fill:#d6ccff;fill-opacity:1" /><g
     id="g18"><g
       id="g16"><path
         d="M16,7c3.9,0,7,3.1,7,7s-3.1,7-7,7s-7-3.1-7-7S12.1,7,16,7 M16,6c-4.4,0-8,3.6-8,8s3.6,8,8,8s8-3.6,8-8S20.4,6,16,6L16,6z"
         id="path14" /></g></g><path
     class="st0"
     d="M20.5,11.8c-0.1-0.1-0.1-0.2-0.3-0.3c-0.1,0-0.1,0-0.2,0h-2c-0.3,0-0.5,0.2-0.5,0.5s0.2,0.5,0.5,0.5h0.8  l-1.9,1.9l-2.7-0.9c-0.2-0.1-0.4,0-0.5,0.1l-3,3c-0.2,0.2-0.2,0.5,0,0.7c0.1,0.1,0.2,0.1,0.4,0.1s0.3,0,0.4-0.1l2.8-2.8l2.7,0.9  c0.2,0.1,0.4,0,0.5-0.1l2.1-2.1V14c0,0.3,0.2,0.5,0.5,0.5s0.5-0.2,0.5-0.5v-2C20.5,11.9,20.5,11.9,20.5,11.8z"
     id="path20"
     style="fill:#d6ccff;fill-opacity:1" /><path
     style="fill:#ffffff;fill-opacity:1;stroke:none;stroke-width:0.3623769;stroke-miterlimit:4;stroke-dasharray:none;stroke-opacity:1"
     d="M 15.241299,24.375231 C 13.352531,22.955185 11.074003,22.029071 8.9935388,21.835813 L 8.2610225,21.767767 8.1476525,20.86708 C 7.8646009,18.618331 6.8290198,16.196584 5.3958093,14.431787 L 5.0666494,14.026473 5.7369461,13.091652 C 7.0536056,11.25539 7.8005292,9.4577272 8.1077026,7.3858202 L 8.2742352,6.2625461 8.7125085,6.2071639 C 11.229898,5.8890555 13.123724,5.1597463 15.071303,3.7584025 l 0.934819,-0.6726314 0.934819,0.6748743 c 1.95336,1.4101891 3.801795,2.1212075 6.359826,2.4463684 l 0.439305,0.055842 0.118523,0.9059323 c 0.167238,1.278266 0.523146,2.5301256 1.013802,3.5659099 0.41117,0.867989 1.241364,2.223369 1.782317,2.909824 l 0.269103,0.341483 -0.578579,0.809063 c -1.500624,2.098417 -2.217344,3.85039 -2.49318,6.094407 l -0.107544,0.874915 -0.684221,0.062 c -2.086858,0.189106 -4.336619,1.092605 -6.257007,2.512798 -0.384687,0.28449 -0.753781,0.514033 -0.820206,0.510095 -0.06643,-0.0039 -0.400229,-0.217262 -0.741781,-0.474054 z m 2.767584,-2.596437 c 2.716557,-0.694777 4.888601,-2.81963 5.723749,-5.599389 0.226645,-0.754378 0.259143,-1.025707 0.25838,-2.157275 -6.71e-4,-1.0053 -0.04505,-1.457626 -0.198671,-2.025414 C 22.471609,7.1153605 17.123324,4.605675 12.576194,6.7335336 10.218576,7.8367963 8.4778494,10.169249 8.0515442,12.796251 c -0.4382017,2.70031 0.7385261,5.727339 2.8973498,7.453176 1.986336,1.587947 4.609307,2.156147 7.059989,1.529367 z"
     id="path4524"
     inkscape:connector-curvature="0" /><path
     style="fill:#ffffff;fill-opacity:1;stroke:none;stroke-width:0.3623769;stroke-miterlimit:4;stroke-dasharray:none;stroke-opacity:1"
     d="M 14.291038,20.729343 C 11.806201,20.078598 9.972987,18.270165 9.2844811,15.790464 9.0154402,14.821495 8.9972068,13.326568 9.2424483,12.34425 9.8620717,9.8623396 11.785309,7.9186378 14.280302,7.2527889 c 0.844499,-0.2253748 2.604753,-0.2257489 3.45164,-7.335e-4 2.22846,0.592095 4.109804,2.3437871 4.851241,4.5169206 0.34869,1.022004 0.433945,2.770927 0.186029,3.816212 -0.601148,2.534607 -2.548499,4.509563 -5.076577,5.148536 -1.000165,0.252793 -2.426607,0.250956 -3.401597,-0.0044 z m -1.411793,-4.778803 1.424971,-1.427352 1.398663,0.468563 c 0.769265,0.257709 1.460837,0.468563 1.536827,0.468563 0.07599,0 0.627713,-0.483001 1.22605,-1.073334 l 1.087885,-1.073334 v 0.380848 c 0,0.466988 0.221597,0.807031 0.525922,0.807031 0.454261,0 0.528746,-0.204177 0.528746,-1.44939 0,-1.091086 -0.01168,-1.159735 -0.23534,-1.383396 -0.219925,-0.219925 -0.30115,-0.235339 -1.240184,-0.235339 -1.102602,0 -1.429678,0.07909 -1.593585,0.385356 -0.08552,0.159795 -0.07613,0.252221 0.04432,0.436044 0.128021,0.195385 0.230338,0.233268 0.630027,0.233268 0.262451,0 0.477184,0.03155 0.477184,0.07011 0,0.03856 -0.393465,0.465215 -0.874366,0.948125 l -0.874367,0.878017 -1.399163,-0.468731 c -0.76954,-0.257801 -1.465049,-0.46873 -1.545576,-0.46873 -0.229488,0 -3.456233,3.27073 -3.456233,3.503345 0,0.289141 0.185193,0.427689 0.571678,0.427689 0.312397,0 0.463269,-0.121903 1.766541,-1.427351 z"
     id="path4526"
     inkscape:connector-curvature="0" /><path
     style="fill:#ffffff;fill-opacity:1;stroke:none;stroke-width:0.3623769;stroke-miterlimit:4;stroke-dasharray:none;stroke-opacity:1"
     d="m 10.541026,28.20739 c 0,-1.377967 -0.09537,-1.721005 -0.478476,-1.721005 -0.098982,0 -0.7312187,0.127554 -1.4049712,0.283453 -0.6737526,0.155899 -1.2347524,0.273705 -1.2466662,0.261792 -0.011914,-0.01191 0.6335559,-0.872275 1.4343772,-1.911913 1.6722772,-2.170975 1.4022962,-2.034132 2.8462822,-1.442676 0.762905,0.312485 1.970377,0.97451 2.475295,1.35714 l 0.222141,0.16834 -1.694356,1.912327 c -0.931896,1.05178 -1.797692,2.019211 -1.923991,2.149846 l -0.229635,0.237518 z"
     id="path4528"
     inkscape:connector-curvature="0" /><path
     style="fill:#ffffff;fill-opacity:1;stroke:none;stroke-width:0.3623769;stroke-miterlimit:4;stroke-dasharray:none;stroke-opacity:1"
     d="m 19.505702,27.425832 c -1.054668,-1.192601 -1.973288,-2.183091 -2.041378,-2.201089 -0.06809,-0.018 0.243499,-0.263586 0.692421,-0.545752 0.851754,-0.535363 2.152285,-1.134665 2.988536,-1.377157 l 0.489033,-0.141807 1.491305,1.926846 c 0.820217,1.059765 1.482922,1.93575 1.472678,1.946632 -0.01024,0.01088 -0.569879,-0.107768 -1.243631,-0.263667 -0.673753,-0.155899 -1.303153,-0.283453 -1.398668,-0.283453 -0.360714,0 -0.434989,0.262303 -0.484779,1.712008 l -0.04794,1.395805 z"
     id="path4530"
     inkscape:connector-curvature="0" /></svg>