<?xml version="1.0" encoding="UTF-8" standalone="no"?>
<!-- Generator: Adobe Illustrator 20.1.0, SVG Export Plug-In . SVG Version: 6.00 Build 0)  -->

<svg
   xmlns:dc="http://purl.org/dc/elements/1.1/"
   xmlns:cc="http://creativecommons.org/ns#"
   xmlns:rdf="http://www.w3.org/1999/02/22-rdf-syntax-ns#"
   xmlns:svg="http://www.w3.org/2000/svg"
   xmlns="http://www.w3.org/2000/svg"
   xmlns:sodipodi="http://sodipodi.sourceforge.net/DTD/sodipodi-0.dtd"
   xmlns:inkscape="http://www.inkscape.org/namespaces/inkscape"
   version="1.1"
   id="Layer_1"
   x="0px"
   y="0px"
   viewBox="0 0 32 32"
   style="enable-background:new 0 0 32 32;"
   xml:space="preserve"
   sodipodi:docname="icon_equipment.svg"
   inkscape:version="0.92.2 5c3e80d, 2017-08-06"><metadata
     id="metadata978"><rdf:RDF><cc:Work
         rdf:about=""><dc:format>image/svg+xml</dc:format><dc:type
           rdf:resource="http://purl.org/dc/dcmitype/StillImage" /></cc:Work></rdf:RDF></metadata><defs
     id="defs976" /><sodipodi:namedview
     pagecolor="#ffffff"
     bordercolor="#666666"
     borderopacity="1"
     objecttolerance="10"
     gridtolerance="10"
     guidetolerance="10"
     inkscape:pageopacity="0"
     inkscape:pageshadow="2"
     inkscape:window-width="1205"
     inkscape:window-height="788"
     id="namedview974"
     showgrid="false"
     inkscape:zoom="18.375"
     inkscape:cx="22.486844"
     inkscape:cy="16"
     inkscape:window-x="0"
     inkscape:window-y="0"
     inkscape:window-maximized="0"
     inkscape:current-layer="Layer_1" /><style
     type="text/css"
     id="style967">
	.st0{fill:#F9A58D;}
</style><path
     d="M31.4,17.5v-3c0-0.2-0.2-0.4-0.4-0.4h-2.6v-2.6c0-0.2-0.2-0.4-0.4-0.4h-2.6V9.5c0-0.2-0.2-0.4-0.4-0.4h-3  c-0.2,0-0.4,0.2-0.4,0.4v4.6H10.4V9.5c0-0.2-0.2-0.4-0.4-0.4H7c-0.2,0-0.4,0.2-0.4,0.4v1.6H4c-0.2,0-0.4,0.2-0.4,0.4v2.6H1  c-0.2,0-0.4,0.2-0.4,0.4v3c0,0.2,0.2,0.4,0.4,0.4h2.6v2.6c0,0.2,0.2,0.4,0.4,0.4h2.6v1.6c0,0.2,0.2,0.4,0.4,0.4h3  c0.2,0,0.4-0.2,0.4-0.4v-4.6h10.8c-1.6,1.2-2.6,3-2.6,5.1c0,3.5,2.9,6.4,6.4,6.4s6.4-2.9,6.4-6.4c0-2.1-1-4-2.6-5.1H31  C31.2,17.9,31.4,17.7,31.4,17.5z M27.6,11.9v2.6v2.7c-0.7-0.3-1.5-0.5-2.2-0.6v-4.8H27.6z M22.4,9.9h2.2v1.6v5.1  c-0.8,0-1.6,0.2-2.2,0.6v-2.7V9.9z M1.4,17.1v-2.2h2.2v2.2H1.4z M4.4,20.1v-2.6v-3v-2.6h2.2v8.2H4.4z M9.6,22.1H7.4v-1.6v-9V9.9h2.2  v4.6v3V22.1z M10.4,14.9h11.2v2.2H10.4V14.9z M30.6,23c0,3.1-2.5,5.6-5.6,5.6s-5.6-2.5-5.6-5.6s2.5-5.6,5.6-5.6S30.6,19.9,30.6,23z   M30.6,17.1h-2.2v-2.2h2.2V17.1z"
     id="path969" /><path
     class="st0"
     d="M25,18.6c-2.4,0-4.4,2-4.4,4.4s2,4.4,4.4,4.4s4.4-2,4.4-4.4S27.4,18.6,25,18.6z M25,19.4c0.9,0,1.6,0.3,2.3,0.8  l-5.1,5.1c-0.5-0.6-0.8-1.4-0.8-2.3C21.4,21,23,19.4,25,19.4z M25,26.6c-0.9,0-1.6-0.3-2.3-0.8l5.1-5.1c0.5,0.6,0.8,1.4,0.8,2.3  C28.6,25,27,26.6,25,26.6z"
     id="path971"
     style="fill:#d6ccff;fill-opacity:1" /><path
     style="fill:#ffffff;fill-opacity:1;stroke:none;stroke-width:0.20568858;stroke-miterlimit:4;stroke-dasharray:none;stroke-opacity:1"
     d="M 1.4258503,16 V 14.911565 H 2.4870748 3.5482993 V 16 17.088435 H 2.4870748 1.4258503 Z"
     id="path6226"
     inkscape:connector-curvature="0" /><path
     style="fill:#ffffff;fill-opacity:1;stroke:none;stroke-width:0.20568858;stroke-miterlimit:4;stroke-dasharray:none;stroke-opacity:1"
     d="M 4.4190476,16 V 11.918367 H 5.507483 6.5959184 V 16 20.081633 H 5.507483 4.4190476 Z"
     id="path6228"
     inkscape:connector-curvature="0" /><path
     style="fill:#ffffff;fill-opacity:1;stroke:none;stroke-width:0.20568858;stroke-miterlimit:4;stroke-dasharray:none;stroke-opacity:1"
     d="M 7.4122449,16 V 9.9047619 H 8.5006803 9.5891156 V 16 22.095238 H 8.5006803 7.4122449 Z"
     id="path6230"
     inkscape:connector-curvature="0" /><path
     style="fill:#ffffff;fill-opacity:1;stroke:none;stroke-width:0.20568858;stroke-miterlimit:4;stroke-dasharray:none;stroke-opacity:1"
     d="M 4.4190476,16 V 11.918367 H 5.507483 6.5959184 V 16 20.081633 H 5.507483 4.4190476 Z"
     id="path6232"
     inkscape:connector-curvature="0" /><path
     style="fill:#ffffff;fill-opacity:1;stroke:none;stroke-width:0.20568858;stroke-miterlimit:4;stroke-dasharray:none;stroke-opacity:1"
     d="m 10.405442,16 v -1.088435 h 5.578231 5.578232 V 16 17.088435 h -5.578232 -5.578231 z"
     id="path6234"
     inkscape:connector-curvature="0" /><path
     style="fill:#ffffff;fill-opacity:1;stroke:none;stroke-width:0.20568858;stroke-miterlimit:4;stroke-dasharray:none;stroke-opacity:1"
     d="M 22.432653,13.521127 V 9.9047619 h 1.061225 1.061224 v 3.3469391 3.346938 h -0.268551 c -0.415596,0 -1.025097,0.147179 -1.45934,0.352393 l -0.394558,0.18646 z"
     id="path6236"
     inkscape:connector-curvature="0" /><path
     style="fill:#ffffff;fill-opacity:1;stroke:none;stroke-width:0.20568858;stroke-miterlimit:4;stroke-dasharray:none;stroke-opacity:1"
     d="m 24.005914,28.486857 c -1.273183,-0.230529 -2.516833,-0.970839 -3.332589,-1.983796 -0.446638,-0.554609 -0.90619,-1.461882 -1.074889,-2.122109 -0.149759,-0.586105 -0.199926,-1.633543 -0.106244,-2.218283 0.598366,-3.734846 4.608762,-5.821288 7.976845,-4.15002 3.349109,1.661853 4.144418,6.064703 1.588956,8.7965 -1.27152,1.359259 -3.226077,2.008333 -5.052079,1.677708 z m 2.068373,-1.22732 c 0.823203,-0.210525 1.509463,-0.624817 2.137125,-1.290171 0.452718,-0.479905 0.750484,-0.979805 0.978556,-1.642835 0.168354,-0.489422 0.177939,-0.559111 0.179652,-1.306123 0.0016,-0.679135 -0.01597,-0.845734 -0.125757,-1.195361 -0.616542,-1.963442 -2.270406,-3.211106 -4.258287,-3.212421 -2.286207,-0.0015 -4.206344,1.798262 -4.383221,4.108462 -0.105587,1.379081 0.57906,2.877304 1.712681,3.747883 1.108981,0.851658 2.432234,1.129936 3.759251,0.790566 z"
     id="path6238"
     inkscape:connector-curvature="0" /><path
     style="fill:#ffffff;fill-opacity:1;stroke:none;stroke-width:0.20568858;stroke-miterlimit:4;stroke-dasharray:none;stroke-opacity:1"
     d="m 21.972708,24.965986 c -0.70265,-1.062496 -0.742177,-2.567901 -0.09824,-3.741496 0.266157,-0.485079 0.911997,-1.114311 1.412581,-1.376254 0.75638,-0.395796 1.788014,-0.531901 2.549136,-0.336313 0.356187,0.09153 1.028385,0.392865 1.28671,0.576809 l 0.164605,0.117209 -2.522442,2.52288 c -1.387343,1.387584 -2.540658,2.52288 -2.562922,2.52288 -0.02226,0 -0.125507,-0.128572 -0.229428,-0.285715 z"
     id="path6240"
     inkscape:connector-curvature="0" /><path
     style="fill:#ffffff;fill-opacity:1;stroke:none;stroke-width:0.20568858;stroke-miterlimit:4;stroke-dasharray:none;stroke-opacity:1"
     d="m 24.582313,26.558612 c -0.179592,-0.02189 -0.436735,-0.06994 -0.571429,-0.106761 -0.282358,-0.0772 -0.943284,-0.393816 -1.142857,-0.547491 l -0.136054,-0.104764 2.528461,-2.53052 c 2.882934,-2.885279 2.563073,-2.676343 2.933605,-1.916253 0.51332,1.053 0.513326,2.265461 1.5e-5,3.284767 -0.660079,1.31075 -2.143885,2.09996 -3.611741,1.921022 z"
     id="path6242"
     inkscape:connector-curvature="0" /><path
     style="fill:#ffffff;fill-opacity:1;stroke:none;stroke-width:0.20568858;stroke-miterlimit:4;stroke-dasharray:none;stroke-opacity:1"
     d="m 24.039722,28.490845 c -2.112491,-0.383304 -3.763294,-1.871709 -4.40742,-3.973838 -0.141376,-0.461384 -0.150082,-0.549777 -0.150082,-1.52381 0,-0.975756 0.0085,-1.061609 0.150787,-1.523809 0.598311,-1.94347 2.063435,-3.362973 4.001108,-3.876519 0.453608,-0.120221 0.636064,-0.138739 1.367014,-0.138739 0.73095,0 0.913406,0.01852 1.367014,0.138739 0.991286,0.262723 1.828302,0.739792 2.552352,1.45475 0.493128,0.486935 0.799551,0.925671 1.12216,1.606705 0.404911,0.854776 0.475937,1.203816 0.475937,2.338873 0,1.076362 -0.05764,1.396124 -0.399819,2.218078 -0.469959,1.128894 -1.468391,2.183693 -2.614242,2.761833 -1.046437,0.52798 -2.341682,0.721525 -3.464809,0.517737 z m 2.185897,-1.279701 c 1.369251,-0.437334 2.419722,-1.432771 2.916011,-2.763242 0.164639,-0.441371 0.178903,-0.533452 0.200853,-1.296591 0.02056,-0.714777 0.0087,-0.875886 -0.09129,-1.240353 -0.422338,-1.539436 -1.661975,-2.771777 -3.188841,-3.170073 -0.517358,-0.134957 -1.650048,-0.134697 -2.14966,4.92e-4 -1.746254,0.472518 -3.036016,1.956092 -3.278937,3.771664 -0.19571,1.46272 0.548819,3.138643 1.787168,4.02289 0.431789,0.30832 1.082925,0.61506 1.567513,0.738431 0.552941,0.140773 1.699991,0.10836 2.237181,-0.06322 z"
     id="path6244"
     inkscape:connector-curvature="0" /><path
     style="fill:#ffffff;fill-opacity:1;stroke:none;stroke-width:0.20568858;stroke-miterlimit:4;stroke-dasharray:none;stroke-opacity:1"
     d="m 26.962276,16.947965 c -0.283274,-0.09841 -0.742457,-0.221752 -1.020408,-0.274103 l -0.505365,-0.09518 v -2.384577 -2.384577 h 1.061225 1.061224 v 2.666666 c 0,1.466667 -0.01837,2.663073 -0.04082,2.658681 -0.02245,-0.0044 -0.272586,-0.0885 -0.55586,-0.186906 z"
     id="path6246"
     inkscape:connector-curvature="0" /><path
     style="fill:#ffffff;fill-opacity:1;stroke:none;stroke-width:0.20568858;stroke-miterlimit:4;stroke-dasharray:none;stroke-opacity:1"
     d="M 22.443306,13.524593 V 9.9047619 h 1.061225 1.061224 v 3.3469391 3.346938 l -0.285714,3.81e-4 c -0.394755,5.45e-4 -1.118708,0.182945 -1.510054,0.380496 l -0.326681,0.164908 z"
     id="path6248"
     inkscape:connector-curvature="0" /><path
     style="fill:#ffffff;fill-opacity:1;stroke:none;stroke-width:0.20568858;stroke-miterlimit:4;stroke-dasharray:none;stroke-opacity:1"
     d="m 28.429701,16 v -1.088435 h 1.061224 1.061225 V 16 17.088435 h -1.061225 -1.061224 z"
     id="path6250"
     inkscape:connector-curvature="0" /></svg>