<?xml version="1.0" encoding="UTF-8" standalone="no"?>
<!-- Generator: Adobe Illustrator 20.1.0, SVG Export Plug-In . SVG Version: 6.00 Build 0)  -->

<svg
   xmlns:dc="http://purl.org/dc/elements/1.1/"
   xmlns:cc="http://creativecommons.org/ns#"
   xmlns:rdf="http://www.w3.org/1999/02/22-rdf-syntax-ns#"
   xmlns:svg="http://www.w3.org/2000/svg"
   xmlns="http://www.w3.org/2000/svg"
   xmlns:sodipodi="http://sodipodi.sourceforge.net/DTD/sodipodi-0.dtd"
   xmlns:inkscape="http://www.inkscape.org/namespaces/inkscape"
   version="1.1"
   id="Layer_1"
   x="0px"
   y="0px"
   viewBox="0 0 26.5 26.5"
   style="enable-background:new 0 0 26.5 26.5;"
   xml:space="preserve"
   sodipodi:docname="icon_fast_workout.svg"
   inkscape:version="0.92.2 5c3e80d, 2017-08-06"><metadata
     id="metadata1104"><rdf:RDF><cc:Work
         rdf:about=""><dc:format>image/svg+xml</dc:format><dc:type
           rdf:resource="http://purl.org/dc/dcmitype/StillImage" /></cc:Work></rdf:RDF></metadata><defs
     id="defs1102" /><sodipodi:namedview
     pagecolor="#ffffff"
     bordercolor="#666666"
     borderopacity="1"
     objecttolerance="10"
     gridtolerance="10"
     guidetolerance="10"
     inkscape:pageopacity="0"
     inkscape:pageshadow="2"
     inkscape:window-width="1225"
     inkscape:window-height="755"
     id="namedview1100"
     showgrid="false"
     inkscape:zoom="22.188679"
     inkscape:cx="5.137755"
     inkscape:cy="13.25"
     inkscape:window-x="0"
     inkscape:window-y="0"
     inkscape:window-maximized="0"
     inkscape:current-layer="Layer_1" /><style
     type="text/css"
     id="style1043">
	.st0{fill:#F9A58D;}
</style><g
     id="g1047"><path
       d="M6.1,13H4c-0.3,0-0.5-0.2-0.5-0.5S3.7,12,4,12h2.1c0.3,0,0.5,0.2,0.5,0.5S6.4,13,6.1,13z"
       id="path1045" /></g><g
     id="g1051"><path
       class="st0"
       d="M14,5.1c-0.3,0-0.5-0.2-0.5-0.5V2.5C13.5,2.2,13.7,2,14,2s0.5,0.2,0.5,0.5v2.1C14.5,4.9,14.3,5.1,14,5.1z"
       id="path1049"
       style="fill:#d6ccff;fill-opacity:1" /></g><g
     id="g1055"><path
       class="st0"
       d="M24,13h-2.1c-0.3,0-0.5-0.2-0.5-0.5s0.2-0.5,0.5-0.5H24c0.3,0,0.5,0.2,0.5,0.5S24.3,13,24,13z"
       id="path1053"
       style="fill:#d6ccff;fill-opacity:1" /></g><g
     id="g1059"><path
       class="st0"
       d="M14,23c-0.3,0-0.5-0.2-0.5-0.5v-2.1c0-0.3,0.2-0.5,0.5-0.5s0.5,0.2,0.5,0.5v2.1C14.5,22.8,14.3,23,14,23z"
       id="path1057"
       style="fill:#d6ccff;fill-opacity:1" /></g><g
     id="g1063"><path
       d="M6.3,8.6c-0.1,0-0.2,0-0.2-0.1l-1-0.6C4.8,7.8,4.8,7.5,4.9,7.3C5,7,5.3,6.9,5.6,7.1l1,0.6c0.2,0.1,0.3,0.4,0.2,0.7   C6.7,8.5,6.5,8.6,6.3,8.6z"
       id="path1061" /></g><g
     id="g1067"><path
       class="st0"
       d="M18.4,5.3c-0.1,0-0.2,0-0.2-0.1c-0.2-0.1-0.3-0.4-0.2-0.7l0.6-1c0.1-0.2,0.4-0.3,0.7-0.2   c0.2,0.1,0.3,0.4,0.2,0.7l-0.6,1C18.8,5.2,18.6,5.3,18.4,5.3z"
       id="path1065"
       style="fill:#d6ccff;fill-opacity:1" /></g><g
     id="g1071"><path
       class="st0"
       d="M22.7,18c-0.1,0-0.2,0-0.2-0.1l-1-0.6c-0.2-0.1-0.3-0.4-0.2-0.7c0.1-0.2,0.4-0.3,0.7-0.2l1,0.6   c0.2,0.1,0.3,0.4,0.2,0.7C23,17.9,22.8,18,22.7,18z"
       id="path1069"
       style="fill:#d6ccff;fill-opacity:1" /></g><g
     id="g1075"><path
       d="M9.9,5.1C9.7,5.1,9.5,5,9.4,4.9l-0.5-1c-0.1-0.2,0-0.5,0.2-0.7c0.2-0.1,0.5,0,0.7,0.2l0.5,1c0.1,0.2,0,0.5-0.2,0.7   C10,5.1,9.9,5.1,9.9,5.1z"
       id="path1073" /></g><g
     id="g1079"><path
       class="st0"
       d="M21.9,8.9c-0.2,0-0.4-0.1-0.4-0.3c-0.1-0.2,0-0.5,0.2-0.7l1-0.5c0.2-0.1,0.5,0,0.7,0.2c0.1,0.2,0,0.5-0.2,0.7   l-1,0.5C22,8.8,21.9,8.9,21.9,8.9z"
       id="path1077"
       style="fill:#d6ccff;fill-opacity:1" /></g><g
     id="g1083"><path
       class="st0"
       d="M18.7,21.8c-0.2,0-0.4-0.1-0.4-0.3l-0.5-1c-0.1-0.2,0-0.5,0.2-0.7c0.2-0.1,0.5,0,0.7,0.2l0.5,1   c0.1,0.2,0,0.5-0.2,0.7C18.8,21.8,18.7,21.8,18.7,21.8z"
       id="path1081"
       style="fill:#d6ccff;fill-opacity:1" /></g><path
     d="M17.9,15.7l-2.5-2.5c0.1-0.2,0.2-0.4,0.2-0.6c0-0.7-0.4-1.2-1-1.4V4.5C14.5,4.2,14.3,4,14,4s-0.5,0.2-0.5,0.5v6.6  c-0.6,0.2-1,0.8-1,1.4c0,0.8,0.7,1.5,1.5,1.5c0.2,0,0.4-0.1,0.6-0.2l2.5,2.5c0.1,0.1,0.2,0.1,0.4,0.1s0.3,0,0.4-0.1  C18.1,16.2,18.1,15.9,17.9,15.7z M13.5,12.5c0-0.3,0.2-0.5,0.5-0.5c0.3,0,0.5,0.2,0.5,0.5S14.3,13,14,13  C13.7,13,13.5,12.8,13.5,12.5z"
     id="path1085" /><path
     d="M14,0C7.1,0,1.5,5.6,1.5,12.5c0,1.4,0.2,2.8,0.7,4.1C0.9,17.6,0,19.2,0,21c0,3,2.5,5.5,5.5,5.5c1.8,0,3.4-0.9,4.4-2.2  c1.3,0.5,2.7,0.7,4.1,0.7c6.9,0,12.5-5.6,12.5-12.5S20.9,0,14,0z M5.5,25.5C3,25.5,1,23.5,1,21s2-4.5,4.5-4.5s4.5,2,4.5,4.5  S8,25.5,5.5,25.5z M14,24c-1.2,0-2.4-0.2-3.6-0.6c0.4-0.7,0.6-1.6,0.6-2.4c0-3-2.5-5.5-5.5-5.5c-0.9,0-1.7,0.2-2.4,0.6  c-0.4-1.1-0.6-2.3-0.6-3.6C2.5,6.2,7.7,1,14,1c6.3,0,11.5,5.2,11.5,11.5S20.3,24,14,24z"
     id="path1087" /><g
     id="g1097"><g
       id="g1091"><path
         class="st0"
         d="M2.7,19.9v-0.7h2.1v0.5l-0.7,0.8c0.3,0,0.5,0.2,0.7,0.4C5,21.2,5,21.4,5,21.6c0,0.4-0.1,0.7-0.4,0.9    c-0.2,0.2-0.6,0.3-1,0.3s-0.8-0.1-1.2-0.4l0.3-0.6c0.3,0.2,0.6,0.4,0.9,0.4c0.2,0,0.3,0,0.4-0.1s0.2-0.2,0.2-0.3s-0.1-0.3-0.2-0.3    s-0.3-0.1-0.5-0.1c-0.1,0-0.3,0-0.5,0.1v-0.6l0.7-0.8H2.7z"
         id="path1089"
         style="fill:#d6ccff;fill-opacity:1" /></g><g
       id="g1095"><path
         class="st0"
         d="M7,22.8c-0.5,0-0.8-0.2-1.1-0.5C5.7,22,5.6,21.5,5.6,21s0.1-1,0.4-1.3c0.2-0.3,0.6-0.5,1.1-0.5    s0.8,0.2,1.1,0.5C8.4,20,8.5,20.5,8.5,21s-0.1,1-0.4,1.3C7.9,22.6,7.5,22.8,7,22.8z M6.5,20.2c-0.1,0.2-0.2,0.5-0.2,0.8    s0.1,0.6,0.2,0.8s0.3,0.3,0.5,0.3s0.4-0.1,0.5-0.3c0.1-0.2,0.2-0.5,0.2-0.8s-0.1-0.6-0.2-0.8c-0.1-0.2-0.3-0.3-0.5-0.3    S6.6,19.9,6.5,20.2z"
         id="path1093"
         style="fill:#d6ccff;fill-opacity:1" /></g></g><path
     style="fill:#ffffff;fill-opacity:1;stroke:none;stroke-width:0.17033586;stroke-miterlimit:4;stroke-dasharray:none;stroke-opacity:1"
     d="m 13.439286,23.966762 c -0.823044,-0.054 -1.723147,-0.207911 -2.506956,-0.428684 l -0.501428,-0.141236 0.156246,-0.338173 C 11.081285,21.989174 11.14191,20.486106 10.7389,19.296315 10.248048,17.847193 9.1642214,16.636555 7.777681,15.988621 6.4061398,15.347696 4.723973,15.314702 3.4491217,15.903719 3.2681189,15.987348 3.111064,16.04127 3.1001107,16.023548 3.0437839,15.932409 2.7949154,15.010212 2.7180228,14.607699 2.4870006,13.398356 2.4732154,11.809309 2.6833337,10.609014 2.9773218,8.929613 3.6027018,7.3982582 4.5514449,6.0346088 5.4250615,4.7789405 6.6772735,3.5811047 7.9860544,2.7491445 8.4332883,2.4648486 9.567934,1.9106875 10.108121,1.7127269 c 2.969135,-1.08809002 6.27467,-0.87497019 9.094929,0.586383 1.13438,0.5877937 1.945274,1.1860002 2.891296,2.1329453 1.780191,1.7819279 2.877101,3.9433419 3.272015,6.4473668 0.125726,0.797188 0.114659,2.565951 -0.02098,3.35319 -0.233456,1.354958 -0.548947,2.306946 -1.151496,3.474616 -1.736196,3.364548 -4.985941,5.667804 -8.704003,6.16896 -0.517133,0.0697 -1.623695,0.118581 -2.050595,0.09057 z m 0.811224,-1.021667 c 0.244042,-0.12194 0.270262,-0.266201 0.270339,-1.487401 9e-5,-1.237445 -0.02327,-1.3693 -0.26455,-1.494071 -0.261683,-0.135322 -0.539568,-0.0681 -0.68162,0.164888 -0.08385,0.137522 -0.08999,0.22756 -0.08999,1.319363 0,1.092948 0.0061,1.181726 0.09025,1.319798 0.136511,0.223899 0.428881,0.300684 0.675567,0.177423 z m 4.776612,-1.286882 c 0.07022,-0.07022 0.15356,-0.214078 0.1852,-0.319686 0.05729,-0.191205 0.05626,-0.194561 -0.242911,-0.79485 -0.269151,-0.540052 -0.319122,-0.612365 -0.479814,-0.694344 -0.236004,-0.1204 -0.414379,-0.117071 -0.530021,0.0099 -0.266941,0.293078 -0.256036,0.451769 0.07665,1.115434 0.148724,0.296687 0.270408,0.569013 0.270408,0.60517 0,0.108508 0.187737,0.206054 0.396573,0.206054 0.155386,0 0.222826,-0.02658 0.323916,-0.127671 z m 3.857668,-3.715975 c 0.342707,-0.199801 0.431093,-0.396748 0.311826,-0.694827 -0.06357,-0.158866 -0.138751,-0.219892 -0.651006,-0.528405 -0.501491,-0.302031 -0.60725,-0.348796 -0.788789,-0.348796 -0.115306,0 -0.258573,0.03206 -0.31837,0.07124 -0.152616,0.1 -0.219535,0.37253 -0.146385,0.596168 0.0509,0.155609 0.113393,0.208091 0.595195,0.499833 0.29608,0.179282 0.569096,0.356737 0.606704,0.394345 0.08153,0.08153 0.260678,0.08632 0.390825,0.01045 z m -4.996246,-1.608355 c 0.168816,-0.102932 0.224545,-0.266343 0.15121,-0.44339 -0.02846,-0.06871 -0.626266,-0.699185 -1.328453,-1.401048 l -1.276704,-1.276114 0.08866,-0.231793 c 0.06794,-0.177615 0.08397,-0.30553 0.06857,-0.547269 -0.03253,-0.5107 -0.282119,-0.896764 -0.732,-1.132266 l -0.24765,-0.129639 -0.02077,-3.4026362 C 14.567822,3.904244 14.52679,2.3886878 14.441701,2.2399387 14.284938,1.9658944 13.899416,1.9133159 13.65407,2.1325195 l -0.147182,0.1314992 -0.01298,4.4091044 -0.01298,4.4091049 -0.175393,0.08107 c -0.642015,0.296738 -0.981522,1.16239 -0.723778,1.845442 0.284037,0.752732 1.231665,1.221163 1.826483,0.902868 l 0.180272,-0.09647 1.308737,1.303826 1.308736,1.303826 0.268645,-1.8e-4 c 0.187506,-1.35e-4 0.312518,-0.02692 0.413906,-0.08874 z M 6.2016975,12.999689 c 0.2743916,-0.06365 0.4045818,-0.223053 0.4045818,-0.495379 0,-0.267758 -0.1199796,-0.427292 -0.3745314,-0.498005 -0.216286,-0.06008 -2.1873556,-0.05776 -2.4055634,0.0028 -0.2964124,0.08231 -0.4371623,0.457927 -0.2831758,0.755704 0.063417,0.122636 0.1923342,0.21029 0.3643892,0.247759 0.175662,0.03825 2.1209062,0.02731 2.2942996,-0.01291 z m 18.1138865,-0.09426 c 0.238295,-0.187443 0.238295,-0.619682 0,-0.807124 -0.111665,-0.08784 -0.176174,-0.09219 -1.366944,-0.09219 -1.194213,0 -1.255002,0.0041 -1.367944,0.09297 -0.228847,0.180011 -0.232279,0.602325 -0.0065,0.797122 0.115813,0.09991 0.135997,0.101403 1.370857,0.101403 1.194362,0 1.258826,-0.0043 1.370509,-0.09219 z M 22.182678,8.7886281 c 0.161011,-0.059291 0.465132,-0.1977644 0.675826,-0.3077196 0.415456,-0.216816 0.583665,-0.4157593 0.585142,-0.6920579 0.0012,-0.2172896 -0.2699,-0.426325 -0.548379,-0.4228935 -0.234147,0.00288 -1.206383,0.5243381 -1.332438,0.7146446 -0.208088,0.3141516 -0.06404,0.8096205 0.236771,0.8143937 0.04968,7.887e-4 0.222068,-0.047077 0.383078,-0.1063673 z M 6.5893483,8.5529989 C 6.7952665,8.4706064 6.8593537,8.3806132 6.8593537,8.173847 6.8593537,7.8707794 6.7605701,7.7668602 6.104154,7.3793855 5.7634977,7.1783001 5.4359519,7.0024023 5.3762746,6.9885015 5.1024841,6.924728 4.8312924,7.206432 4.8312924,7.55461 c 0,0.196251 0.067096,0.2562289 0.7210885,0.6445913 0.2850552,0.1692751 0.5345005,0.3345585 0.5543227,0.3672959 0.048952,0.080847 0.2617247,0.074896 0.4826447,-0.013498 z M 18.726834,5.1990478 c 0.06428,-0.050566 0.269826,-0.3457184 0.456758,-0.6558938 0.303177,-0.5030593 0.339877,-0.5884021 0.339877,-0.7903548 0,-0.1901403 -0.0211,-0.247498 -0.131737,-0.3581368 -0.167015,-0.1670152 -0.465417,-0.1842118 -0.651847,-0.037565 -0.179982,0.1415736 -0.793856,1.1992481 -0.793519,1.3671947 3.16e-4,0.1518303 0.07736,0.3247186 0.208241,0.4672486 0.116202,0.1265404 0.415903,0.1304724 0.572227,0.00751 z M 10.231996,4.9642431 C 10.418223,4.6612593 10.405343,4.5535229 10.111584,3.957107 9.9560382,3.6413041 9.7911456,3.371085 9.7196776,3.3148685 9.5394627,3.1731113 9.2971099,3.1105946 9.1483985,3.1675027 9.00629,3.2218838 8.8423469,3.5113927 8.8423469,3.707962 c 0,0.073988 0.1251575,0.3801703 0.2816752,0.6890828 0.3156425,0.6229714 0.4180555,0.7134697 0.8075487,0.7135994 0.1888922,6.31e-5 0.2195992,-0.014901 0.3004252,-0.1464011 z"
     id="path5668"
     inkscape:connector-curvature="0" /><path
     style="fill:#ffffff;fill-opacity:1;stroke:none;stroke-width:0.17033586;stroke-miterlimit:4;stroke-dasharray:none;stroke-opacity:1"
     d="m 13.816879,12.93286 c -0.311866,-0.135732 -0.386662,-0.49881 -0.15595,-0.757021 0.112905,-0.126363 0.161241,-0.147183 0.341707,-0.147183 0.180466,0 0.228802,0.02082 0.341707,0.147183 0.234244,0.262164 0.154967,0.624881 -0.165877,0.758939 -0.180573,0.07545 -0.183865,0.07543 -0.361587,-0.0019 z"
     id="path5670"
     inkscape:connector-curvature="0" /><path
     style="fill:#ffffff;fill-opacity:1;stroke:none;stroke-width:0.17033586;stroke-miterlimit:4;stroke-dasharray:none;stroke-opacity:1"
     d="M 4.7614191,25.415607 C 2.7220402,25.045136 1.2373029,23.452301 1.05118,21.435241 0.77098892,18.398742 3.4668587,15.997285 6.4511004,16.62504 c 0.899127,0.189137 1.6641987,0.633542 2.3494639,1.364725 0.502267,0.535922 0.8335828,1.142005 1.0415852,1.905392 0.1447166,0.531122 0.1458704,1.689293 0.0022,2.212803 -0.348777,1.270918 -1.1837789,2.311454 -2.3089798,2.877332 -0.8627232,0.433874 -1.883053,0.592154 -2.7739549,0.430315 z M 4.1662531,22.730394 C 4.4321546,22.663263 4.7643678,22.409485 4.885987,22.18059 5.0303152,21.908955 5.0324622,21.306166 4.8900544,21.038608 4.7828654,20.837219 4.5603098,20.646938 4.3092677,20.542046 4.1242475,20.464739 4.1082271,20.502888 4.5266732,20.024347 4.7825194,19.731758 4.7862244,19.723556 4.7862244,19.44973 V 19.171939 H 3.7496598 2.7130951 v 0.471689 0.47169 l 0.4706119,0.01279 0.4706118,0.01279 -0.3344108,0.383079 -0.3344109,0.383078 -9.969e-4,0.303094 -9.969e-4,0.303093 0.115604,-0.04395 c 0.2390296,-0.09088 0.9000037,-0.02007 1.0061107,0.107777 0.1196746,0.1442 0.1030584,0.284118 -0.053448,0.450063 -0.1337878,0.141856 -0.1828255,0.164364 -0.3581008,0.164364 -0.2395134,0 -0.4937973,-0.08284 -0.7491893,-0.244059 -0.1014892,-0.06407 -0.2049175,-0.116486 -0.2298406,-0.116486 -0.024923,0 -0.1086316,0.12543 -0.1860187,0.278733 -0.162534,0.321978 -0.1645947,0.317938 0.2647166,0.519024 0.4086279,0.191399 0.8794425,0.22627 1.3729157,0.101685 z m 3.1528296,0.04251 C 8.1583107,22.598817 8.6091478,21.775732 8.48095,20.651707 8.4177871,20.097902 8.3156585,19.816502 8.1028883,19.610015 7.7573977,19.274728 7.3341805,19.144929 6.8426438,19.223502 5.9887363,19.360001 5.5447044,20.06896 5.6100734,21.191473 c 0.035976,0.617777 0.1599157,0.984943 0.410421,1.21585 0.3911972,0.360593 0.7863595,0.471841 1.2985883,0.365584 z"
     id="path5672"
     inkscape:connector-curvature="0" /><path
     style="fill:#ffffff;fill-opacity:1;stroke:none;stroke-width:0.17033586;stroke-miterlimit:4;stroke-dasharray:none;stroke-opacity:1"
     d="m 6.7917516,22.048767 c -0.2826905,-0.15635 -0.4732143,-0.579731 -0.4732143,-1.051573 0,-0.282405 0.1424709,-0.773546 0.2722517,-0.938536 0.1251727,-0.159131 0.3537996,-0.19696 0.6066854,-0.100382 0.1705167,0.06512 0.2170455,0.112699 0.324799,0.332124 0.11219,0.228458 0.1257708,0.304778 0.1257708,0.706794 0,0.391799 -0.015384,0.483482 -0.1177484,0.70175 -0.088355,0.188395 -0.1575565,0.269959 -0.2772192,0.326743 -0.1832201,0.08694 -0.3323654,0.0944 -0.461325,0.02308 z"
     id="path5674"
     inkscape:connector-curvature="0" /></svg>